<?xml version="1.0" standalone="no"?>
<!DOCTYPE svg PUBLIC "-//W3C//DTD SVG 1.1//EN" "http://www.w3.org/Graphics/SVG/1.1/DTD/svg11.dtd" >
<svg xmlns="http://www.w3.org/2000/svg">
<metadata>Generated by IcoMoon</metadata>
<defs>
<font id="broadleaf" horiz-adv-x="1024">
<font-face units-per-em="1024" ascent="960" descent="-64" />
<missing-glyph horiz-adv-x="1024" />
<glyph unicode="&#x20;" horiz-adv-x="512" d="" />
<glyph unicode="&#xe600;" glyph-name="add-category" horiz-adv-x="1087" d="M193.024 781.946h218.259v87.215h-261.645c-23.907 0-43.829-19.479-43.829-43.829v-262.087h87.215v218.701zM193.024 302.043h-87.215v-262.087c0-23.907 19.479-43.829 43.829-43.829h262.087v87.215h-218.701v218.701zM891.628 83.784h-218.259v-87.215h262.087c23.907 0 43.829 19.479 43.829 43.829v262.087h-87.215v-218.701zM935.457 869.161h-262.087v-87.215h218.259v-218.259h87.215v262.087c0 23.907-19.479 43.386-43.386 43.386zM717.198 389.258v87.215h-131.044v131.044h-87.215v-131.044h-131.044v-87.215h131.044v-131.044h87.215v131.044z" />
<glyph unicode="&#xe601;" glyph-name="calendar" horiz-adv-x="1087" d="M978.843 825.775h-87.215v43.829c0 23.907-19.479 43.829-43.829 43.829s-43.829-19.479-43.829-43.829v-43.829h-523.732v43.829c0 23.907-19.479 43.829-43.829 43.829s-43.829-19.479-43.829-43.829v-43.829h-86.772c-23.907 0-43.829-19.479-43.829-43.829v-785.819c0-23.907 19.479-43.829 43.829-43.829h873.034c23.907 0 43.829 19.479 43.829 43.829v785.819c0 24.349-19.479 43.829-43.829 43.829zM935.457 39.955h-785.819v610.947h785.819v-610.947z" />
<glyph unicode="&#xe602;" glyph-name="catalog" horiz-adv-x="1087" d="M891.628 869.161h-698.604c-23.907 0-43.829-19.479-43.829-43.829v-785.377c0-23.907 19.479-43.829 43.829-43.829h698.604c23.907 0 43.829 19.479 43.829 43.829v785.819c0 23.907-19.479 43.386-43.829 43.386zM847.799 258.214h-87.215c-23.907 0-43.829-19.479-43.829-43.829v-43.829h-348.859v43.829c0 23.907-19.479 43.829-43.829 43.829h-87.215v523.732h611.39v-523.732zM367.896 563.687h349.302c23.907 0 43.829 19.479 43.829 43.829 0 23.907-19.479 43.829-43.829 43.829h-349.302c-23.907 0-43.829-19.479-43.829-43.829s19.479-43.829 43.829-43.829zM367.896 389.258h349.302c23.907 0 43.829 19.479 43.829 43.829 0 23.907-19.479 43.829-43.829 43.829h-349.302c-23.907 0-43.829-19.479-43.829-43.829s19.479-43.829 43.829-43.829z" />
<glyph unicode="&#xe603;" glyph-name="category" horiz-adv-x="1087" d="M455.111 869.161h-349.302v-349.302l523.732-523.732 349.302 349.302-523.732 523.732zM302.374 607.516c-36.303 0-65.522 29.219-65.522 65.522s29.219 65.522 65.522 65.522 65.079-29.219 65.079-65.522c0-36.303-29.219-65.522-65.079-65.522z" />
<glyph unicode="&#xe604;" glyph-name="checkmark" horiz-adv-x="1087" d="M913.321 611.501l-94.298 94.741-364.355-360.37-197.008 197.894-85.887-91.642 291.307-292.635 450.241 452.012z" />
<glyph unicode="&#xe605;" glyph-name="close" horiz-adv-x="1087" d="M863.737 661.527l-92.527 92.97-228.884-228.884-228.884 228.884-92.527-92.97 228.884-228.884-228.884-228.884 92.527-92.527 228.884 228.884 228.884-228.884 92.527 92.527-228.884 228.884z" />
<glyph unicode="&#xe606;" glyph-name="content" horiz-adv-x="1087" d="M629.541 563.687v305.473h-479.903v-873.034h785.819v567.561h-305.916zM804.413 148.863h-524.175c-23.907 0-43.829 19.479-43.829 43.829 0 23.907 19.479 43.829 43.829 43.829h523.732c23.907 0 43.829-19.479 43.829-43.829 0-23.907-19.479-43.829-43.386-43.829zM804.413 323.736h-524.175c-23.907 0-43.829 19.479-43.829 43.829 0 23.907 19.479 43.829 43.829 43.829h523.732c23.907 0 43.829-19.479 43.829-43.829s-19.479-43.829-43.386-43.829z" />
<glyph unicode="&#xe607;" glyph-name="customer-care" horiz-adv-x="1087" d="M852.669 314.881c-38.073 30.105-88.1 57.553-137.684 75.262 0 0-164.247 43.386-50.027 142.112 0 0 11.068 9.74 14.61 13.281 75.262 73.933 75.262 194.352 0 268.728-37.631 37.188-87.215 55.782-136.799 55.339v0 0c0 0 0 0 0 0v0c-49.584 0-99.168-18.151-136.799-55.339-75.262-74.376-75.262-194.352 0-268.728 3.542-3.542 14.61-13.281 14.61-13.281 114.22-98.725-50.027-142.112-50.027-142.112-49.584-17.709-99.611-45.157-137.684-75.262-61.095-47.813-61.095-220.472-61.095-222.243 0-53.569 166.018-96.955 370.995-96.955 0 0 0.443 0 0.443 0v0c0 0 0 0 0.443 0 204.977 0 370.995 43.386 370.995 96.955-0.885 1.771-0.885 174.43-61.98 222.243z" />
<glyph unicode="&#xe608;" glyph-name="delete" horiz-adv-x="1087" d="M850.898 738.56c-170.445 170.445-446.7 170.445-617.145 0s-170.445-446.7 0-617.588c170.445-170.445 446.7-170.445 617.588 0 170.003 170.888 170.003 447.142-0.443 617.588zM294.848 183.838c-126.174 126.174-135.471 324.067-28.334 461.309l489.2-489.2c-136.799-107.137-335.135-97.84-460.866 27.891zM816.809 216.599l-489.643 489.2c136.799 106.694 335.135 97.397 460.866-28.334 126.174-125.731 135.471-324.067 28.776-460.866z" />
<glyph unicode="&#xe609;" glyph-name="deploy" horiz-adv-x="1087" d="M935.457 869.161h-785.819c-23.907 0-43.829-19.479-43.829-43.829v-785.377c0-23.907 19.479-43.829 43.829-43.829h218.259v87.215h-174.872v698.604h698.604v-698.604h-174.43v-87.215h218.259c23.907 0 43.829 19.479 43.829 43.829v785.819c-0.443 23.907-19.922 43.386-43.829 43.386zM542.326 564.13l-173.987-219.144h130.601v-348.859h87.215v348.859h130.158z" />
<glyph unicode="&#xe60a;" glyph-name="design" horiz-adv-x="1087" d="M236.853 891.296v-741.99h785.819v741.99h-785.819zM935.457 498.165l-110.236 92.085-239.066-266.957-131.044 131.044-131.044-131.044v480.789h611.39v-305.916zM541.883 541.552c47.813 0 86.772 39.402 86.772 87.658s-38.959 87.658-86.772 87.658c-47.813 0-86.772-39.402-86.772-87.658s38.959-87.658 86.772-87.658zM149.638 716.424h-87.658v-741.99h785.819v87.215h-698.162z" />
<glyph unicode="&#xe60b;" glyph-name="edit" horiz-adv-x="1087" d="M760.585 39.513h-611.39v611.39h395.787l84.559 87.215h-523.732c-23.907 0-43.829-19.479-43.829-43.829v-698.604c0-23.907 19.479-43.829 43.829-43.829h698.604c23.907 0 43.829 19.479 43.829 43.829v524.175l-87.215-85.001v-395.345zM367.454 388.815l-43.829-174.43 174.43 43.829-130.601 130.601zM1022.774 820.803l-65.113-65.113-92.661 92.661 65.113 65.113 92.661-92.661zM454.537 437.434l349.044 349.044 92.661-92.661-349.044-349.044-92.661 92.661z" />
<glyph unicode="&#xe60c;" glyph-name="globe" horiz-adv-x="1087" d="M920.405 173.655c50.47 73.933 80.574 162.919 80.574 258.988 0 253.233-205.42 458.21-458.21 458.21-253.676 0.443-458.653-204.977-458.653-458.21s205.42-458.21 458.21-458.21c146.981 0 277.582 69.506 361.256 177.086 9.297 4.427 14.167 12.839 16.823 22.136zM172.216 431.758c0 106.252 45.157 201.878 116.877 269.171-40.287-57.996-13.724-171.773 13.281-202.764 59.324-67.735 79.689-4.427 131.044-87.215 51.355-83.23 1.328-58.881-43.829-87.215-23.464-15.052-57.996-40.73-43.829-87.215 28.334-93.413 90.314-108.022 127.059-168.232-171.331 32.761-300.604 182.841-300.604 363.469zM550.738 62.091c-3.984 24.792-3.984 57.11 13.281 87.215 35.417 60.652 96.955 195.68 0 218.259s-100.054 80.574-87.215 131.044c24.792 97.397 126.174 162.476 87.215 218.259-25.235 36.303-73.491 62.423-103.595 76.147 26.563 5.755 53.569 9.297 81.902 9.297 67.735 0 130.601-18.594 185.498-50.027-29.219-23.021-102.71-88.1-32.761-122.632 65.522-32.318 158.049-65.965 198.336-80.131 7.969-23.464 13.281-48.256 16.38-73.491-19.479 11.953-46.042 20.808-83.673 23.021-19.479 0.885-163.362-11.511-87.215-87.215 75.704-76.147 92.527-135.471 87.215-174.43-2.656-19.922-12.396-38.516-10.625-54.011-65.965-73.048-159.82-119.090-264.744-121.304z" />
<glyph unicode="&#xe60d;" glyph-name="notifications" horiz-adv-x="1087" d="M913.321 181.181c-77.918 0-87.215 305.473-87.215 305.473 0 153.179-92.97 271.827-224.457 299.275 4.427 8.412 6.641 18.151 6.641 28.334 0 35.86-29.662 65.079-65.965 65.079s-65.965-29.219-65.965-65.079c0-10.182 2.656-19.922 6.641-28.334-131.486-27.448-224.457-146.096-224.457-299.275 0-284.666-69.949-304.588-84.559-305.473h-2.656v-87.215h278.468c-3.542-10.182-5.755-20.365-5.755-31.433 0-54.897 43.829-99.168 98.283-99.168 54.011 0 98.283 44.272 98.283 99.168 0 11.068-2.214 21.693-5.755 31.433h278.468v87.215z" />
<glyph unicode="&#xe60e;" glyph-name="product-added" horiz-adv-x="1087" d="M369.224 187.379c48.256 0 87.215-38.959 87.215-87.215s-38.959-87.215-87.215-87.215c-48.256 0-87.215 38.959-87.215 87.215s38.959 87.215 87.215 87.215zM775.194 187.379c48.256 0 87.215-38.959 87.215-87.215s-38.959-87.215-87.215-87.215-87.215 38.959-87.215 87.215 38.959 87.215 87.215 87.215zM1025.328 740.773h-719.412l-17.266 81.017c-4.427 22.578-24.349 29.662-47.813 29.662v0h-179.3c-23.907 0-44.714-15.495-44.714-38.959v-24.792c0-23.464 21.25-46.928 44.714-46.928h131.929l48.699-445.371c0-23.021 19.922-37.188 44.714-37.188h594.566c24.792 0 46.928 17.266 54.454 39.844l134.143 399.329c0 22.578-19.922 43.386-44.714 43.386z" />
<glyph unicode="&#xe60f;" glyph-name="product-group" horiz-adv-x="1087" d="M96.069 611.058h892.956c18.594 0 33.646-15.495 33.646-34.974l-87.215-497.612c-6.641-20.808-15.052-34.974-33.646-34.974h-718.527c-18.594 0-28.776 14.167-33.646 34.974l-87.658 497.612c0 19.479 15.495 34.974 34.089 34.974zM193.024 821.79h349.302c23.907 0 43.829-19.479 43.829-43.829v-43.829h349.302v-87.215h-785.819v131.486c0 23.907 19.479 43.386 43.386 43.386z" />
<glyph unicode="&#xe610;" glyph-name="product-image" horiz-adv-x="1087" d="M978.843 825.775h-873.034c-23.907 0-43.829-19.479-43.829-43.829v-698.604c0-23.907 19.479-43.829 43.829-43.829h873.034c23.907 0 43.829 19.479 43.829 43.829v698.604c0 24.349-19.479 43.829-43.829 43.829zM935.457 302.043l-174.43 174.43-262.087-262.087-174.43 174.43-174.43-174.43v524.175h785.819v-436.517zM455.111 650.902c48.256 0 87.215-38.959 87.215-87.215s-38.959-87.215-87.215-87.215c-48.256 0-87.215 38.959-87.215 87.215s38.959 87.215 87.215 87.215z" />
<glyph unicode="&#xe611;" glyph-name="reverse" horiz-adv-x="1087" d="M935.457 869.161h-218.259v-87.215h174.43v-698.604h-698.604v698.604h174.43v87.215h-217.816c-23.907 0-43.829-19.479-43.829-43.829v-785.377c0-23.907 19.479-43.829 43.829-43.829h785.819c23.907 0 43.829 19.479 43.829 43.829v785.819c-0.443 23.907-19.922 43.386-43.829 43.386zM542.326 301.6l173.987 219.144h-130.158v348.417h-87.215v-348.417h-130.601z" />
<glyph unicode="&#xe612;" glyph-name="running" horiz-adv-x="1087" d="M542.326 891.296c-253.233 0-458.21-205.42-458.21-458.653s205.42-458.21 458.21-458.21c253.233 0 458.21 205.42 458.21 458.21s-204.977 458.653-458.21 458.653zM607.848 378.632h-12.839l-243.936-138.57c-7.526-6.198-16.823-9.74-27.006-9.74-23.464 0-42.501 19.037-42.501 42.501 0 15.495 8.412 29.219 21.25 36.745l-0.443 0.443 220.029 124.846v270.942c-0.885 3.542-1.328 7.083-1.328 11.068 0 23.907 19.479 43.829 43.829 43.829 23.907 0 43.829-19.479 43.829-43.829v0-338.234z" />
<glyph unicode="&#xe613;" glyph-name="security" horiz-adv-x="1087" d="M847.799 498.165h-43.829l-2.656 147.867c0 141.669-117.319 244.821-258.988 244.821-68.621 0.443-131.486-14.167-179.742-62.866-47.813-48.256-82.788-130.601-82.345-198.779v-131.044h-43.829c-23.907 0-43.829-19.479-43.829-43.829v-436.517c0-23.907 19.479-43.829 43.829-43.829h611.39c23.907 0 43.829 19.479 43.829 43.829v436.517c0 24.349-19.479 43.829-43.829 43.829zM586.155 204.645v-77.475c0-23.907-19.479-43.829-43.829-43.829-23.907 0-43.829 19.479-43.829 43.829v77.475c-26.12 15.052-43.829 42.943-43.829 75.262 0 48.256 38.959 87.215 87.215 87.215s87.215-38.959 87.215-87.215c0.443-32.318-17.266-59.767-42.943-75.262zM717.198 498.165h-349.302v131.044c0.443 104.038 70.392 174.43 174.43 174.43 104.923 0 174.43-69.949 174.43-174.43v-131.044z" />
<glyph unicode="&#xe614;" glyph-name="settings" horiz-adv-x="1087" d="M891.628 432.644c0 66.407 49.141 120.861 113.335 129.716-10.625 37.631-25.235 73.048-44.272 106.252-51.355-37.631-123.518-33.646-170.003 12.396-46.485 46.485-50.027 118.648-12.396 170.003-33.204 18.594-68.621 33.646-106.252 44.272-8.854-63.751-63.308-113.335-129.716-113.335s-120.861 49.141-129.716 113.335c-37.188-10.625-73.048-25.235-105.809-43.829 40.287-51.355 37.188-125.288-10.182-172.659s-121.304-50.47-172.659-10.182c-18.594-33.204-33.646-68.621-43.829-105.809 63.751-8.854 113.335-63.308 113.335-129.716s-49.141-120.861-113.335-129.716c10.625-37.188 25.235-73.048 43.829-106.252 51.355 38.959 124.403 35.417 171.331-11.511s50.47-119.976 11.511-171.331c33.204-18.594 68.621-33.646 106.252-43.829 8.854 63.751 63.308 113.335 129.716 113.335s120.861-49.141 129.716-113.335c37.188 10.625 73.048 25.235 106.252 43.829-38.959 51.355-35.417 124.403 11.511 171.331s119.976 50.47 171.331 11.511c18.594 33.204 33.646 68.621 43.829 106.252-64.636 8.412-113.778 63.308-113.778 129.273zM542.326 258.214c-96.512 0-174.43 78.361-174.43 174.43 0 96.512 78.361 174.43 174.43 174.43 96.512 0 174.43-78.361 174.43-174.43 0.443-96.069-77.918-174.43-174.43-174.43z" />
<glyph unicode="&#xe615;" glyph-name="site-updates" horiz-adv-x="1087" d="M819.908 710.669c-71.277 71.277-169.117 115.106-277.582 115.106-186.826 0-343.104-130.601-382.949-305.473h89.871c37.631 126.174 154.508 218.259 292.635 218.259 83.23 0 158.492-33.204 213.831-87.215h4.427l-131.044-131.044h305.473v305.473l-114.663-115.106zM542.326 127.17c-84.559 0-160.706 34.532-216.045 89.871l128.387 128.387h-305.473v-305.473l115.106 115.106c71.277-71.277 169.117-115.106 277.582-115.106 186.826 0 343.104 130.601 382.949 305.473h-89.871c-37.188-126.174-154.065-218.259-292.635-218.259z" />
<glyph unicode="&#xe616;" glyph-name="tooltip" horiz-adv-x="1087" d="M542.326 869.161c-241.28 0-436.517-195.237-436.517-436.517s195.237-436.517 436.517-436.517 436.517 195.237 436.517 436.517-195.237 436.517-436.517 436.517zM636.624 198.447c0 0-106.694-90.314-156.278-90.314-0.443 0-0.885 0-0.885 0-0.443 0-0.885 0-0.885 0-23.907 0-43.829 19.479-43.829 43.829 0 6.641 1.771 13.281 4.427 19.037l69.064 291.307c-140.783-33.204-93.856 5.313-93.856 5.313s90.314 83.23 140.341 95.184c3.542 0.885 7.083 1.771 11.068 1.771 23.907 0 43.829-19.479 43.829-43.829 0-6.641-1.771-13.281-4.427-19.037l-71.277-300.161c150.523 31.433 102.71-3.099 102.71-3.099zM586.155 629.209c-36.303 0-65.522 29.219-65.522 65.522s29.219 65.522 65.522 65.522 65.522-29.219 65.522-65.522c0-36.303-29.662-65.522-65.522-65.522z" />
<glyph unicode="&#xe617;" glyph-name="view" horiz-adv-x="1087" d="M542.326 760.253c-315.656 0-502.039-327.609-502.039-327.609s175.315-327.609 502.039-327.609c322.739 0 502.039 327.609 502.039 327.609s-182.841 327.609-502.039 327.609zM542.326 279.907c-84.559 0-152.737 68.621-152.737 152.737 0 84.559 68.621 152.737 152.737 152.737 84.559 0 152.737-68.621 152.737-152.737s-68.178-152.737-152.737-152.737z" />
<glyph unicode="&#xe618;" glyph-name="dot-menu-horizontal" d="M512.051 573.44c-62.208 0-112.691-50.432-112.691-112.64s50.483-112.64 112.691-112.64c62.208 0 112.589 50.432 112.589 112.64s-50.381 112.64-112.589 112.64zM153.651 573.44c-62.208 0-112.691-50.432-112.691-112.64s50.483-112.64 112.691-112.64c62.208 0 112.589 50.483 112.589 112.64s-50.381 112.64-112.589 112.64zM870.451 573.44c-62.208 0-112.691-50.432-112.691-112.64s50.483-112.64 112.691-112.64c62.208 0 112.589 50.432 112.589 112.64s-50.381 112.64-112.589 112.64z" />
<glyph unicode="&#xe619;" glyph-name="dot-menu-vertical" d="M512.051 573.44c-62.208 0-112.691-50.432-112.691-112.64s50.483-112.64 112.691-112.64c62.208 0 112.589 50.432 112.589 112.64s-50.381 112.64-112.589 112.64zM512.051 706.56c62.208 0 112.589 50.483 112.589 112.64s-50.381 112.64-112.589 112.64c-62.208 0-112.691-50.432-112.691-112.64s50.483-112.64 112.691-112.64zM512.051 215.040c-62.208 0-112.691-50.432-112.691-112.64s50.483-112.64 112.691-112.64c62.208 0 112.589 50.432 112.589 112.64s-50.381 112.64-112.589 112.64z" />
<glyph unicode="&#xe61a;" glyph-name="save" d="M776.858 870.4h-572.058c-56.371 0-102.4-46.080-102.4-102.4v-614.4c0-56.32 46.029-102.4 102.4-102.4h614.4c56.371 0 102.4 46.080 102.4 102.4v556.698l-144.742 160.102zM716.8 563.2c0-28.109-23.040-51.2-51.2-51.2h-307.2c-28.16 0-51.2 23.091-51.2 51.2v256h409.6v-256zM665.6 768h-102.4v-204.8h102.4v204.8z" />
<glyph unicode="&#xe61b;" glyph-name="select-arrows" d="M512 921.6l-256-358.4h512l-256 358.4zM512 0l256 358.4h-512l256-358.4z" />
<glyph unicode="&#xe61c;" glyph-name="triangle-left" d="M716.8 716.8v-512l-460.8 256 460.8 256z" />
<glyph unicode="&#xe61d;" glyph-name="triangle-right" d="M768 460.8l-460.8-256v512l460.8-256z" />
<glyph unicode="&#xe61e;" glyph-name="credit-card" d="M921.6 819.2h-819.2c-56.371 0-102.4-46.080-102.4-102.4v-512c0-56.32 46.029-102.4 102.4-102.4h819.2c56.32 0 102.4 46.080 102.4 102.4v512c0 56.32-46.080 102.4-102.4 102.4zM921.6 204.8h-819.2v307.2h819.2v-307.2zM921.6 665.6h-819.2v51.2h819.2v-51.2zM204.8 404.48v-30.72h30.72v30.72h-30.72zM389.12 343.091v-30.771h61.44v30.771h30.72v30.72h30.72v30.72h-61.44v-30.72h-30.771v-30.72h-30.669zM512 312.32v30.771h-30.771v-30.771h30.771zM358.4 312.32v30.771h-61.44v-30.771h61.44zM389.12 373.811h30.72v30.72h-61.44v-61.389h30.72v30.669zM266.189 343.091h30.771v30.72h30.72v30.72h-61.44v-30.72h-30.72v-30.72h-30.72v-30.771h61.389v30.771z" />
<glyph unicode="&#xe61f;" glyph-name="folder-images" d="M942.336 829.491c-5.734 22.528-33.587 40.909-61.952 40.909h-736.768c-28.416 0-56.269-18.381-61.952-40.909l-10.291-61.491h881.203l-10.24 61.491zM993.894 716.8h-963.84c-17.51 0-31.181-15.053-29.542-32.512l47.258-597.453c1.946-20.173 18.944-35.635 39.219-35.635h849.971c20.326 0 37.274 15.462 39.219 35.635l47.258 597.453c1.69 17.459-12.032 32.512-29.542 32.512zM636.826 544c26.522 0 48.026-21.504 48.026-48.026s-21.504-48.026-48.026-48.026-48.026 21.555-48.026 48.077c0 26.47 21.504 47.974 48.026 47.974zM281.6 256l127.283 292.557 144.742-234.291 124.109 61.645 64.666-119.91h-460.8z" />
<glyph unicode="&#xe620;" glyph-name="news" d="M716.8 716.8h-204.8v-102.4h204.8v102.4zM716.8 563.2h-204.8v-51.2h204.8v51.2zM460.8 716.8h-153.6v-204.8h153.6v204.8zM460.8 409.6h256v51.2h-256v-51.2zM614.4 307.2h102.4v51.2h-102.4v-51.2zM716.8 256h-409.6v-51.2h409.6v51.2zM563.2 358.4h-256v-51.2h256v51.2zM409.6 460.8h-102.4v-51.2h102.4v51.2zM870.4 921.6h-716.8c-28.314 0-51.2-22.886-51.2-51.2v-819.2c0-28.262 22.886-51.2 51.2-51.2h716.8c28.314 0 51.2 22.938 51.2 51.2v819.2c0 28.262-22.886 51.2-51.2 51.2zM819.2 102.4h-614.4v716.8h614.4v-716.8z" />
<glyph unicode="&#xe621;" glyph-name="publish" d="M510.31 553.318l-254.31-246.118h153.6v-307.2h204.8v307.2h153.6l-257.69 246.118zM921.6 921.6h-819.2c-56.32 0-102.4-46.080-102.4-102.4v-614.4c0-56.32 46.080-102.4 102.4-102.4h204.8v102.4h-204.8v460.8h819.2v-460.8h-204.8v-102.4h204.8c56.32 0 102.4 46.080 102.4 102.4v614.4c0 56.32-46.080 102.4-102.4 102.4zM128 755.2c-21.197 0-38.4 17.203-38.4 38.4s17.203 38.4 38.4 38.4c21.197 0 38.4-17.203 38.4-38.4s-17.203-38.4-38.4-38.4zM230.4 755.2c-21.197 0-38.4 17.203-38.4 38.4s17.203 38.4 38.4 38.4c21.197 0 38.4-17.203 38.4-38.4s-17.203-38.4-38.4-38.4zM921.6 768h-614.4v51.2h615.373l-0.973-51.2z" />
<glyph unicode="&#xe622;" glyph-name="tools" d="M160.512 620.032c47.77 37.12 87.398 11.52 140.288-49.715 5.939-6.912 13.926 1.178 18.483 5.12 4.506 3.994 74.291 66.816 77.722 69.683 3.379 3.021 7.475 8.653 2.099 14.95-5.478 6.298-25.293 32-38.042 48.691-92.57 121.088 253.235 203.213 200.141 204.493-27.034 0.717-135.475 1.997-151.706 0.205-65.69-6.912-148.173-68.301-189.696-96.922-54.323-37.171-74.598-58.982-77.926-62.003-15.36-13.414-2.458-44.39-30.31-68.813-29.44-25.754-47.821-6.246-64.87-21.197-8.448-7.475-32.102-25.19-38.861-31.078-6.81-5.99-8.038-16.077-1.075-24.115 0 0 64.717-71.475 70.144-77.824 5.376-6.246 20.019-11.674 29.030-3.635 9.062 7.987 32.358 28.314 36.25 31.898 3.994 3.379-2.56 44.083 18.33 60.262zM452.762 593.562c-6.144 7.117-13.773 7.322-20.326 1.485l-73.421-64.102c-5.786-5.12-6.605-14.49-1.382-20.48l424.653-483.277c9.933-11.418 27.136-12.595 38.451-2.714l49.664 41.626c11.366 9.984 12.544 27.29 2.662 38.81l-420.301 488.653zM1018.982 799.232c-3.789 25.293-16.896 20.019-23.706 9.318-6.81-10.803-36.915-56.422-49.306-77.107-12.288-20.48-42.598-60.979-99.021-20.992-58.778 41.523-38.349 70.502-28.109 90.010 10.291 19.61 41.882 74.598 46.438 81.408 4.557 6.912-0.768 26.982-18.995 18.586-18.278-8.397-129.178-52.48-144.538-115.712-15.718-64.307 13.158-121.805-43.52-178.893l-68.762-71.68 69.069-80.179 84.685 80.384c20.173 20.275 63.283 39.987 102.298 31.078 83.61-18.893 129.229 12.493 156.723 64.41 24.678 46.387 20.582 144.077 16.742 169.37zM140.237 99.686c-10.65-10.701-10.65-28.109 0-38.81l48.691-47.616c10.65-10.701 27.546-6.195 38.195 4.506l251.238 246.989-76.954 87.757-261.171-252.826z" />
</font>
</defs>
</svg>
